<?xml version="1.0" standalone="no"?>
<!DOCTYPE svg PUBLIC "-//W3C//DTD SVG 20010904//EN"
 "http://www.w3.org/TR/2001/REC-SVG-20010904/DTD/svg10.dtd">
<svg version="1.0" xmlns="http://www.w3.org/2000/svg"
 width="1202.000000pt" height="87.000000pt" viewBox="0 0 1202.000000 87.000000"
 preserveAspectRatio="xMidYMid meet">
<metadata>
Created by potrace 1.16, written by Peter Selinger 2001-2019
</metadata>
<g transform="translate(0.000000,87.000000) scale(0.100000,-0.100000)"
fill="#000000" stroke="none">
<path d="M4430 850 c-26 -16 2 -29 111 -50 76 -15 108 -25 121 -40 36 -44 57
-217 58 -467 l0 -193 -119 0 c-128 0 -146 -7 -130 -47 8 -22 13 -23 143 -23
149 0 169 7 161 58 -2 15 -9 128 -15 252 -18 368 -29 442 -74 479 -14 12 -167
41 -216 41 -14 0 -32 -5 -40 -10z"/>
<path d="M9910 850 c-26 -16 2 -29 111 -50 76 -15 108 -25 121 -40 36 -44 57
-217 58 -467 l0 -193 -119 0 c-128 0 -146 -7 -130 -47 8 -22 13 -23 143 -23
149 0 169 7 161 58 -2 15 -9 128 -15 252 -18 368 -29 442 -74 479 -14 12 -167
41 -216 41 -14 0 -32 -5 -40 -10z"/>
<path d="M3545 776 c-73 -33 -102 -96 -118 -255 -7 -74 -16 -120 -25 -126 -11
-9 -10 -15 6 -35 15 -20 21 -45 23 -111 3 -61 9 -93 22 -113 32 -48 42 -19 28
76 -7 46 -11 99 -10 118 5 43 13 45 196 35 l131 -7 7 -44 c3 -24 1 -78 -6
-119 -7 -41 -10 -77 -7 -81 12 -11 47 7 54 29 11 33 7 205 -6 294 -41 271
-155 401 -295 339z m122 -46 c59 -36 108 -138 120 -251 8 -83 5 -85 -119 -78
-56 4 -127 7 -157 8 l-54 1 6 98 c7 122 20 167 62 209 39 39 91 44 142 13z"/>
<path d="M1820 727 c0 -20 9 -64 20 -99 22 -69 38 -188 25 -188 -5 0 -29 13
-54 29 -118 76 -215 49 -255 -72 -20 -60 -20 -99 -1 -164 17 -59 59 -109 100
-119 46 -11 130 21 182 72 26 24 50 44 53 44 4 0 14 -18 23 -40 11 -29 21 -40
37 -40 19 0 21 4 16 42 -4 24 -13 115 -21 203 -20 218 -61 354 -108 363 -13 3
-17 -4 -17 -31z m-3 -319 c70 -50 71 -89 2 -163 -65 -71 -147 -96 -182 -57
-27 30 -49 103 -42 143 20 116 119 151 222 77z"/>
<path d="M11370 727 c0 -20 9 -64 20 -99 22 -69 38 -188 25 -188 -5 0 -29 13
-54 29 -118 76 -215 49 -255 -72 -20 -60 -20 -99 -1 -164 17 -59 59 -109 100
-119 46 -11 130 21 182 72 26 24 50 44 53 44 4 0 14 -18 23 -40 11 -29 21 -40
37 -40 19 0 21 4 16 42 -4 24 -13 115 -21 203 -20 218 -61 354 -108 363 -13 3
-17 -4 -17 -31z m-3 -319 c70 -50 71 -89 2 -163 -65 -71 -147 -96 -182 -57
-27 30 -49 103 -42 143 20 116 119 151 222 77z"/>
<path d="M3194 720 c-109 -28 -222 -71 -227 -84 -3 -7 8 -59 24 -116 36 -130
59 -257 68 -382 4 -54 10 -100 13 -104 3 -3 23 -1 45 5 21 6 100 11 176 11
140 0 151 3 128 39 -8 12 -35 13 -155 8 -145 -7 -146 -7 -156 15 -5 13 -19
100 -30 193 -12 94 -30 199 -41 234 -10 35 -19 67 -19 71 0 8 150 58 263 87
38 10 69 23 70 28 3 18 -86 15 -159 -5z"/>
<path d="M7964 720 c-109 -28 -222 -71 -227 -84 -3 -7 8 -59 24 -116 36 -130
59 -257 68 -382 4 -54 10 -100 13 -104 3 -3 23 -1 45 5 21 6 100 11 176 11
140 0 151 3 128 39 -8 12 -35 13 -155 8 -145 -7 -146 -7 -156 15 -5 13 -19
100 -30 193 -12 94 -30 199 -41 234 -10 35 -19 67 -19 71 0 8 150 58 263 87
38 10 69 23 70 28 3 18 -86 15 -159 -5z"/>
<path d="M8251 659 c-56 -11 -92 -34 -84 -54 4 -11 12 -13 27 -9 50 16 94 24
144 24 51 0 54 -2 66 -32 17 -42 34 -157 42 -279 6 -105 12 -123 37 -113 24 9
22 97 -3 244 -25 145 -25 160 -2 160 39 0 142 -62 190 -115 83 -91 91 -172 24
-247 -67 -74 -147 -100 -235 -74 -72 21 -87 20 -87 -4 0 -34 55 -54 146 -55
70 0 88 4 139 30 84 43 118 94 123 185 5 89 -9 128 -68 193 -105 115 -301 177
-459 146z"/>
<path d="M3885 647 c8 -19 24 -23 161 -38 l112 -12 7 -86 c12 -157 36 -346 48
-371 16 -34 67 -41 67 -10 0 11 -7 34 -15 50 -17 33 -52 249 -57 350 l-3 65
47 3 c25 2 73 -4 106 -12 78 -21 122 -21 122 0 0 38 -131 61 -411 71 -170 5
-189 5 -184 -10z"/>
<path d="M9365 647 c8 -19 24 -23 161 -38 l112 -12 7 -86 c12 -157 36 -346 48
-371 16 -34 67 -41 67 -10 0 11 -7 34 -15 50 -17 33 -52 249 -57 350 l-3 65
47 3 c25 2 73 -4 106 -12 78 -21 122 -21 122 0 0 38 -131 61 -411 71 -170 5
-189 5 -184 -10z"/>
<path d="M2010 626 c0 -22 4 -26 31 -26 30 0 31 1 17 23 -22 33 -48 34 -48 3z"/>
<path d="M7190 403 c0 -235 5 -293 26 -293 23 0 28 43 26 252 -2 209 -9 258
-37 258 -13 0 -15 -29 -15 -217z"/>
<path d="M7298 483 c-6 -155 3 -357 15 -370 5 -4 15 1 23 11 19 27 20 428 1
465 -27 53 -34 34 -39 -106z"/>
<path d="M763 543 c-115 -74 -133 -261 -36 -354 60 -58 98 -73 183 -73 60 -1
85 4 125 24 l50 24 -125 6 c-138 6 -186 21 -224 73 -30 41 -30 173 0 214 29
39 82 73 114 73 42 0 82 -45 78 -89 -3 -30 -10 -40 -52 -65 -33 -21 -62 -31
-92 -31 -51 -1 -62 -9 -44 -30 29 -34 152 -3 199 50 26 30 31 44 31 86 0 45
-4 55 -34 85 -29 29 -41 34 -83 34 -36 0 -60 -7 -90 -27z"/>
<path d="M6835 556 c-39 -18 -80 -62 -99 -108 -22 -51 -20 -153 3 -203 54
-119 228 -170 354 -102 l42 22 -125 5 c-143 6 -191 23 -225 81 -28 48 -28 151
1 199 25 43 78 80 114 80 61 0 105 -78 70 -123 -26 -33 -116 -70 -151 -63 -33
6 -46 -8 -28 -31 30 -35 178 10 215 65 36 53 15 151 -37 177 -35 18 -94 19
-134 1z"/>
<path d="M10745 554 c-47 -24 -72 -52 -95 -107 -29 -67 -24 -166 10 -222 53
-85 161 -128 272 -107 33 6 72 19 87 29 26 18 25 18 -99 23 -194 9 -240 43
-240 177 0 104 42 166 120 179 71 12 126 -72 80 -121 -36 -39 -108 -68 -147
-60 -32 6 -34 4 -31 -17 3 -21 8 -23 58 -22 98 2 180 64 180 137 0 100 -103
159 -195 111z"/>
<path d="M2314 550 c-25 -10 -39 -39 -25 -53 5 -5 17 -4 31 3 56 30 160 -49
160 -121 0 -16 -4 -20 -17 -14 -10 3 -41 11 -69 16 -89 17 -166 -11 -204 -74
-80 -130 107 -235 310 -174 50 15 75 27 75 37 0 17 -8 17 -157 5 -82 -7 -105
-5 -143 9 -113 43 -66 141 73 153 74 7 130 -20 174 -82 44 -63 62 -60 54 7
-15 125 -86 241 -171 279 -44 20 -60 22 -91 9z"/>
<path d="M8921 524 c-71 -37 -106 -135 -82 -231 17 -68 54 -116 114 -149 44
-25 62 -29 122 -28 39 1 97 9 129 18 123 36 157 115 98 227 -65 124 -278 215
-381 163z m180 -57 c98 -41 157 -99 179 -179 19 -64 -54 -117 -171 -126 -70
-5 -101 5 -167 55 -83 62 -96 183 -26 248 35 33 107 33 185 2z"/>
<path d="M11574 505 c-13 -21 -16 -40 -11 -98 10 -137 74 -248 151 -262 47 -9
71 0 123 48 38 35 46 39 58 26 8 -8 21 -35 28 -59 10 -34 18 -46 35 -48 28 -4
28 11 -1 90 -15 39 -26 96 -30 150 -6 92 -18 128 -42 128 -12 0 -15 -17 -15
-84 0 -78 -2 -87 -32 -131 -18 -26 -45 -54 -59 -63 -83 -48 -172 77 -171 240
0 43 -4 80 -8 83 -5 3 -17 -6 -26 -20z"/>
<path d="M1242 480 c-47 -24 -67 -29 -75 -21 -6 6 -15 11 -20 11 -13 0 -2
-236 14 -282 12 -38 54 -86 64 -76 4 3 -3 55 -15 115 -25 131 -17 172 39 210
103 70 190 -22 199 -212 5 -98 13 -118 39 -93 12 12 16 34 15 85 -1 146 -73
279 -157 289 -32 4 -53 -1 -103 -26z"/>
<path d="M2057 504 c-19 -19 4 -302 29 -362 8 -19 19 -32 26 -30 21 7 21 85
-1 213 -11 66 -22 133 -23 149 -3 29 -18 43 -31 30z"/>
<path d="M5260 488 c-62 -32 -102 -92 -108 -163 -12 -147 85 -227 260 -212 68
6 103 20 92 38 -3 5 -40 9 -82 9 -100 0 -148 14 -189 55 -30 30 -33 39 -33 92
0 68 23 113 72 143 62 37 116 23 147 -38 l19 -37 7 38 c8 44 -4 63 -52 84 -46
19 -82 16 -133 -9z"/>
<path d="M6080 494 c-19 -9 -46 -17 -60 -19 -24 -3 -25 -5 -23 -74 2 -77 25
-180 55 -250 18 -42 20 -43 35 -28 16 16 15 22 -7 94 -41 138 -46 171 -29 201
25 46 58 55 134 37 37 -8 71 -15 76 -15 20 0 3 45 -21 57 -34 17 -117 16 -160
-3z"/>
<path d="M6416 478 c-49 -25 -63 -28 -78 -19 -27 17 -32 -5 -25 -108 9 -128
25 -190 55 -220 25 -24 27 -25 30 -6 3 10 -4 57 -13 102 -10 47 -15 101 -12
125 12 86 117 139 173 87 52 -49 84 -149 84 -266 0 -41 3 -53 15 -53 59 0 37
217 -33 322 -49 75 -103 85 -196 36z"/>
<path d="M405 476 c-16 -7 -52 -31 -80 -53 l-50 -39 -24 29 c-48 57 -136 74
-186 35 -25 -19 -28 -20 -37 -5 -5 10 -14 17 -20 17 -15 0 -2 -298 14 -317 6
-7 17 -13 26 -13 13 0 14 14 8 95 -7 105 4 150 45 179 67 47 122 2 162 -132
27 -89 46 -120 67 -107 14 9 12 42 -5 93 -13 37 -13 47 -1 77 19 45 89 95 133
95 71 0 117 -98 111 -236 -3 -88 12 -109 37 -50 20 48 19 122 -4 194 -23 76
-55 120 -97 138 -41 17 -60 17 -99 0z"/>
<path d="M5710 471 c-75 -23 -143 -84 -155 -141 -36 -164 145 -277 299 -186
118 69 114 243 -8 317 -32 19 -90 24 -136 10z m108 -62 c54 -26 85 -72 77
-113 -14 -74 -111 -143 -187 -133 -90 12 -146 119 -99 190 47 72 130 94 209
56z"/>
</g>
</svg>
